<?xml version="1.0" encoding="UTF-8"?>
<svg version="1.1" xmlns="http://www.w3.org/2000/svg" width="300" height="300">
<path d="M0 0 C99 0 198 0 300 0 C300 99 300 198 300 300 C201 300 102 300 0 300 C0 201 0 102 0 0 Z " fill="#040825" transform="translate(0,0)"/>
<path d="M0 0 C9.92050829 4.02571351 18.71902509 2.22420942 28.56640625 -1.09765625 C35.59798536 -3.26049882 41.90615382 -2.03709553 48.5 1 C56.2308524 5.28235517 60.16169749 11.66898951 63.64453125 19.609375 C64.8784644 24.50003242 64.82866612 29.22556894 64.8125 34.25 C64.82861328 35.23613281 64.84472656 36.22226563 64.86132812 37.23828125 C64.87169827 52.98015569 57.57376441 68.84420771 46.5 80 C38.72876973 86.34386144 31.52051622 88.85842973 21.5 88 C20.530625 87.67 19.56125 87.34 18.5625 87 C11.68513314 84.75432919 5.20147301 85.71864749 -1.5 88 C-9.6653611 88.97041643 -14.93096097 87.23970397 -21.52734375 82.5625 C-27.28792347 77.96288164 -30.82211873 72.31292026 -34.5 66 C-35.34111328 64.75089844 -35.34111328 64.75089844 -36.19921875 63.4765625 C-37.65890897 60.6974526 -37.6068741 59.08298089 -37.5 56 C-32.03711187 56.97711263 -26.58094134 57.97376767 -21.140625 59.0703125 C-4.02186072 63.30000397 -4.02186072 63.30000397 12.7734375 60.84765625 C17.20918986 56.10079908 16.83713962 49.86062575 16.8125 43.75 C16.83666992 42.52796875 16.83666992 42.52796875 16.86132812 41.28125 C16.90009402 38.65698425 16.90009402 38.65698425 16.5 35 C13.16513224 32.77675483 11.35252227 32.54072008 7.41796875 32.0703125 C5.56884888 31.83985229 5.56884888 31.83985229 3.68237305 31.60473633 C2.70365738 31.48746689 2.70365738 31.48746689 1.70516968 31.36782837 C-1.68873047 30.95936942 -5.07887709 30.52252179 -8.46875 30.08203125 C-9.14823196 29.993806 -9.82771393 29.90558075 -10.52778625 29.81468201 C-16.82131646 28.98339882 -23.06874123 27.95501766 -29.3125 26.8125 C-30.23587158 26.64572754 -31.15924316 26.47895508 -32.1105957 26.30712891 C-38.36565752 25.13434248 -38.36565752 25.13434248 -39.5 24 C-39.07229439 17.01414174 -36.34116454 11.76174682 -32.5 6 C-31.84 6 -31.18 6 -30.5 6 C-30.5 5.34 -30.5 4.68 -30.5 4 C-28.890625 2.74609375 -28.890625 2.74609375 -26.75 1.4375 C-26.05390625 1.00308594 -25.3578125 0.56867187 -24.640625 0.12109375 C-17.25549713 -3.74666482 -7.5031171 -3.11803545 0 0 Z " fill="#3ABDF9" transform="translate(137.5,47)"/>
<path d="M0 0 C1.74609375 1.70703125 1.74609375 1.70703125 3.4375 3.8125 C6.09411353 6.97004277 8.56779691 9.65605642 12 12 C12.50273438 12.37125 13.00546875 12.7425 13.5234375 13.125 C18.18969346 16.05923956 22.7115504 16.36267008 28.125 16.375 C28.80602783 16.37661133 29.48705566 16.37822266 30.1887207 16.37988281 C34.50559542 16.28534121 37.94394942 15.3687774 42 14 C44.703125 13.98828125 44.703125 13.98828125 47.25 14.3125 C48.10078125 14.41175781 48.9515625 14.51101562 49.828125 14.61328125 C52 15 52 15 54 16 C64.40670222 16.79351104 73.25020271 16.48945491 81.7265625 9.87109375 C85.5895183 6.49239898 88.96334899 3.13492182 92 -1 C100.66451961 0.97214812 108.92112003 3.60473274 117.25 6.6875 C118.38824219 7.10322266 119.52648437 7.51894531 120.69921875 7.94726562 C123.46817755 8.95944804 126.23499529 9.97707656 129 11 C128.67 12.65 128.34 14.3 128 16 C115.01204912 20.44865776 101.97631473 24.66260766 88.8125 28.5625 C66.33708121 33.57971906 66.33708121 33.57971906 46.1875 43.5625 C44.39470327 47.24245119 44.42929113 50.97539068 45 55 C45.66 55.99 46.32 56.98 47 58 C51.89539044 57.41491068 56.32779799 56.39618401 61.0078125 54.85546875 C61.6551535 54.64440994 62.30249451 54.43335114 62.9694519 54.21589661 C65.02312422 53.54518217 67.07411563 52.86668583 69.125 52.1875 C71.14669898 51.52338693 73.1689371 50.86094084 75.19132996 50.19894409 C76.52938138 49.76095188 77.86720046 49.32224922 79.20478821 48.88284302 C83.32734329 47.53230109 87.46239045 46.23420458 91.61328125 44.97265625 C99.70097051 42.5068213 107.69070829 39.75361354 115.68554688 37.00390625 C116.83216797 36.61589844 117.97878906 36.22789062 119.16015625 35.828125 C120.70135132 35.3007373 120.70135132 35.3007373 122.27368164 34.76269531 C125 34 125 34 129 34 C128.67 35.65 128.34 37.3 128 39 C120.06076934 41.48359803 112.12064126 43.96415039 104.17578125 46.4296875 C90.52342173 50.67041027 76.89201611 54.95031416 63.34765625 59.52734375 C62.6311792 59.76880127 61.91470215 60.01025879 61.17651367 60.2590332 C59.65292486 60.77771992 58.13247866 61.30568785 56.61450195 61.84057617 C49.35915806 64.35907725 43.04207963 65.53766767 35.76953125 62.3359375 C28.97062291 59.5058361 21.99012546 57.26880302 14.99853516 54.97009277 C12.59199231 54.17661683 10.18823928 53.37517813 7.78515625 52.57128906 C0.98662528 50.29901142 -5.80891857 48.03848944 -12.6640625 45.94140625 C-14.05165771 45.50115112 -14.05165771 45.50115112 -15.46728516 45.05200195 C-17.09213416 44.5374821 -18.72442569 44.04559618 -20.36474609 43.58276367 C-24.3783453 42.28176279 -26.48666137 40.85096994 -28.47265625 37.21484375 C-30.00331788 33.54277217 -30.50990525 30.31409677 -30.4375 26.3125 C-30.43621094 25.23613281 -30.43492188 24.15976563 -30.43359375 23.05078125 C-29.95752538 19.70114703 -28.92387253 17.75057637 -27 15 C-28.32 14.34 -29.64 13.68 -31 13 C-32.83696979 17.69044459 -33.24287041 21.60139382 -33.1875 26.625 C-33.18105469 27.91664063 -33.17460938 29.20828125 -33.16796875 30.5390625 C-33.03663187 33.24521308 -32.81208875 35.44029626 -32 38 C-36.29942535 37.52228607 -38.2935135 36.38310813 -41 33 C-42.94980163 27.08645691 -42.85338143 20.27568382 -40.6875 14.5 C-37.74746475 10.14439223 -35.54511804 8.59984202 -30.484375 7.02734375 C-29.39769531 6.68509766 -28.31101562 6.34285156 -27.19140625 5.99023438 C-26.05574219 5.64283203 -24.92007813 5.29542969 -23.75 4.9375 C-22.62980469 4.58623047 -21.50960937 4.23496094 -20.35546875 3.87304688 C-18.19197586 3.19743428 -16.02602824 2.52962011 -13.85742188 1.87060547 C-12.16123763 1.35380839 -10.46828597 0.82584609 -8.78320312 0.27392578 C-3.13649309 -1.5234395 -3.13649309 -1.5234395 0 0 Z " fill="#517BF5" transform="translate(103,124)"/>
<path d="M0 0 C-0.33 1.65 -0.66 3.3 -1 5 C-5.87414808 6.5859648 -10.74938661 8.16854759 -15.625 9.75 C-16.37175995 9.99243439 -17.1185199 10.23486877 -17.88790894 10.48464966 C-27.04533888 13.4559376 -36.21262921 16.39171249 -45.40234375 19.26171875 C-46.2543335 19.5283432 -47.10632324 19.79496765 -47.98413086 20.06967163 C-52.12690712 21.36584587 -56.27122968 22.65661588 -60.41845703 23.93847656 C-73.75888384 27.17831091 -73.75888384 27.17831091 -84 35 C-84.31478577 36.95214625 -84.31478577 36.95214625 -84.25 39 C-84.25515625 39.680625 -84.2603125 40.36125 -84.265625 41.0625 C-84.09917603 43.32416007 -84.09917603 43.32416007 -82 46 C-75.82761936 45.36810625 -70.2753313 43.61504226 -64.40625 41.6484375 C-63.38309692 41.31131744 -62.35994385 40.97419739 -61.30578613 40.62686157 C-58.03533408 39.54843171 -54.76753151 38.46224343 -51.5 37.375 C-38.72936732 33.14010844 -25.95567855 28.92743366 -13.09375 24.9765625 C-12.12046753 24.67503265 -11.14718506 24.37350281 -10.14440918 24.06283569 C-9.24790649 23.79024933 -8.35140381 23.51766296 -7.42773438 23.23681641 C-6.64217163 22.99685944 -5.85660889 22.75690247 -5.04724121 22.50967407 C-3 22 -3 22 0 22 C0 23.32 0 24.64 0 26 C-1.65082245 26.55027415 -3.30164515 27.10054754 -4.95246887 27.65081787 C-6.43032734 28.1434408 -7.90818163 28.63607624 -9.3860321 29.12872314 C-13.48919193 30.49650531 -17.59242743 31.86405972 -21.69580078 33.23120117 C-29.44194959 35.81225681 -37.18720405 38.39578348 -44.92773438 40.99365234 C-48.12265178 42.06266202 -51.32163079 43.11919339 -54.52099609 44.17480469 C-56.29439499 44.76512262 -58.06528887 45.36298732 -59.83447266 45.96582031 C-62.78112608 46.96986518 -65.73367247 47.95479097 -68.6875 48.9375 C-69.5729248 49.24469971 -70.45834961 49.55189941 -71.37060547 49.8684082 C-81.23490271 53.10638572 -88.94920222 52.58760899 -98.5625 48.875 C-100.3216088 48.22784885 -102.08072348 47.5807137 -103.83984375 46.93359375 C-104.70851074 46.6072998 -105.57717773 46.28100586 -106.47216797 45.94482422 C-110.17320703 44.56149206 -113.89755371 43.2476181 -117.625 41.9375 C-118.30425537 41.69652588 -118.98351074 41.45555176 -119.68334961 41.20727539 C-125.70854035 39.07692738 -131.77061346 37.0613483 -137.85009766 35.09155273 C-142.35396325 33.61525695 -146.6550234 31.89216723 -151 30 C-151.9075 29.7525 -152.815 29.505 -153.75 29.25 C-156.44020858 27.75543968 -157.43777694 26.20460545 -158.49609375 23.33203125 C-159.7844183 17.36978508 -160.35797695 10.5836382 -157.4765625 5.1015625 C-156.98929687 4.40804687 -156.50203125 3.71453125 -156 3 C-149.70466387 4.2465364 -143.77597418 5.9952953 -137.75 8.1875 C-135.98878524 8.8165171 -134.22704857 9.44407442 -132.46484375 10.0703125 C-131.56491699 10.39032227 -130.66499023 10.71033203 -129.73779297 11.04003906 C-124.40824659 12.90875463 -119.04135708 14.6659369 -113.67602539 16.42871094 C-109.48436125 17.81271023 -105.31680877 19.23329157 -101.1796875 20.7734375 C-100.42002686 21.05372803 -99.66036621 21.33401855 -98.87768555 21.62280273 C-97.47389568 22.14497939 -96.07386624 22.67744892 -94.67895508 23.22290039 C-84.83158247 26.87318712 -77.55130425 24.20871436 -68 21 C-65.71553181 20.26738224 -63.43036291 19.53694621 -61.14453125 18.80859375 C-58.7002666 18.01901575 -56.25626674 17.22861771 -53.8125 16.4375 C-52.48734426 16.00980576 -51.16214795 15.58223718 -49.83691406 15.15478516 C-43.19161968 13.01005303 -36.54973323 10.85530018 -29.91337585 8.68305969 C-26.78575525 7.65969405 -23.65711563 6.63946387 -20.52841187 5.61941528 C-19.01422522 5.12469188 -17.50056854 4.62834335 -15.98745728 4.13034058 C-13.87310923 3.43452398 -11.75707877 2.74406774 -9.640625 2.0546875 C-7.82353027 1.45889893 -7.82353027 1.45889893 -5.96972656 0.85107422 C-3 0 -3 0 0 0 Z " fill="#955CF1" transform="translate(232,167)"/>
<path d="M0 0 C3.3 0 6.6 0 10 0 C10 16.17 10 32.34 10 49 C6.7 49 3.4 49 0 49 C-0.33 48.34 -0.66 47.68 -1 47 C-1.55171875 47.31839844 -2.1034375 47.63679688 -2.671875 47.96484375 C-7.01267313 49.89489661 -11.37192667 49.83624497 -16 49 C-20.30615376 46.59382391 -23.14874676 43.56063095 -25.5 39.25 C-26.51108082 32.67797464 -27.33902398 26.52151232 -23.875 20.5625 C-21.33093979 17.1113654 -18.96548727 14.79569235 -15 13 C-8.99064562 12.17145193 -5.96930216 12.27302338 -1 16 C-0.67 10.72 -0.34 5.44 0 0 Z " fill="#F1F1F2" transform="translate(228,235)"/>
<path d="M0 0 C2.12324959 1.19686362 4.1205693 2.43277124 6.078125 3.8828125 C5.35446185 7.22711987 4.26097004 9.22543593 2.078125 11.8828125 C-0.17985324 11.38103956 -2.12430771 10.78980288 -4.234375 9.8203125 C-7.66845767 8.62237668 -10.3039281 8.55978153 -13.921875 8.8828125 C-16.68629469 10.29040591 -16.68629469 10.29040591 -18.921875 11.8828125 C-19.581875 11.8828125 -20.241875 11.8828125 -20.921875 11.8828125 C-23.59615492 17.71274274 -24.4399892 24.79016444 -22.1640625 30.92578125 C-20.25024385 33.97734249 -18.24470969 35.64797528 -14.921875 36.8828125 C-11.41318086 37.12453957 -11.41318086 37.12453957 -7.671875 37.0078125 C-5.77695313 36.98074219 -5.77695313 36.98074219 -3.84375 36.953125 C-2.87953125 36.92992187 -1.9153125 36.90671875 -0.921875 36.8828125 C-0.921875 33.9128125 -0.921875 30.9428125 -0.921875 27.8828125 C-4.221875 27.8828125 -7.521875 27.8828125 -10.921875 27.8828125 C-10.921875 25.2428125 -10.921875 22.6028125 -10.921875 19.8828125 C-4.321875 19.8828125 2.278125 19.8828125 9.078125 19.8828125 C9.26742807 23.28125329 9.40591027 26.66915576 9.515625 30.0703125 C9.57427734 31.03001953 9.63292969 31.98972656 9.69335938 32.97851562 C9.86180066 39.93273452 9.86180066 39.93273452 7.62939453 42.63916016 C0.14597872 48.19227432 -9.03321199 47.50130794 -17.921875 46.8828125 C-24.25300154 45.31420503 -28.31845419 41.1588492 -31.921875 35.8828125 C-35.49941764 29.80099001 -35.74554499 23.76503285 -34.921875 16.8828125 C-32.49771475 8.95867576 -26.85501782 4.10298639 -19.921875 -0.1171875 C-13.73375872 -2.17989293 -6.11048047 -2.33636018 0 0 Z " fill="#F5F5F6" transform="translate(132.921875,237.1171875)"/>
<path d="M0 0 C3.63 0 7.26 0 11 0 C11.4031543 0.98282959 11.80630859 1.96565918 12.22167969 2.97827148 C13.73371012 6.66338295 15.24746787 10.34778287 16.76171875 14.03198242 C17.41387478 15.61935726 18.06557716 17.20691855 18.71679688 18.79467773 C19.65893022 21.091489 20.60260069 23.38766194 21.546875 25.68359375 C22.0021759 26.79303848 22.0021759 26.79303848 22.4666748 27.92489624 C24.0526189 31.77168547 25.69881164 35.5737167 27.453125 39.34765625 C29 43 29 43 29 47 C25.7 47 22.4 47 19 47 C17.68 44.03 16.36 41.06 15 38 C8.73 38 2.46 38 -4 38 C-5.32 40.97 -6.64 43.94 -8 47 C-11.3 47 -14.6 47 -18 47 C-17.40945125 43.6787644 -16.59909644 40.69852535 -15.32592773 37.5769043 C-14.98565048 36.73641037 -14.64537323 35.89591644 -14.29478455 35.029953 C-13.92809158 34.1370607 -13.56139862 33.2441684 -13.18359375 32.32421875 C-12.80767593 31.3990596 -12.43175812 30.47390045 -12.04444885 29.52070618 C-10.84626105 26.5746031 -9.64197011 23.63103946 -8.4375 20.6875 C-7.62264282 18.68701349 -6.80818503 16.68636425 -5.99414062 14.68554688 C-4.00071831 9.78846622 -2.00181977 4.89365362 0 0 Z " fill="#F4F4F4" transform="translate(36,237)"/>
<path d="M0 0 C4.13209456 2.21178505 7.30178935 5.66012833 9 10 C9.9041167 17.08782845 9.33545772 23.17092423 5 29 C1.09672431 32.99289171 -2.14885541 35.15125493 -7.75 35.3125 C-12.64271786 35.24199974 -15.32043315 34.41674064 -19 31 C-23.11972302 25.79613934 -23.6294533 21.45640303 -23.3828125 14.87109375 C-22.63963938 9.29729535 -20.13628702 5.82118907 -15.9375 2.125 C-10.6814563 -1.67724438 -6.13950341 -1.39621106 0 0 Z " fill="#0C536D" transform="translate(189,70)"/>
<path d="M0 0 C4.40181064 2.40545043 6.89139931 5.25113117 9.1328125 9.6953125 C9.7265625 12.1484375 9.7265625 12.1484375 9.7265625 21.1484375 C1.8065625 21.1484375 -6.1134375 21.1484375 -14.2734375 21.1484375 C-13.2834375 22.7984375 -12.2934375 24.4484375 -11.2734375 26.1484375 C-8.90936666 26.78934285 -8.90936666 26.78934285 -6.3359375 26.5234375 C-5.05396484 26.47316406 -5.05396484 26.47316406 -3.74609375 26.421875 C-1.29506813 26.22463197 -1.29506813 26.22463197 0.90234375 25.50390625 C1.50433594 25.38660156 2.10632813 25.26929688 2.7265625 25.1484375 C4.9765625 27.0859375 4.9765625 27.0859375 6.7265625 29.1484375 C5.80849109 31.44361604 5.15513185 32.86001642 3.078125 34.2578125 C-3.04609909 36.57728608 -10.92267107 36.17947541 -16.8359375 33.5859375 C-17.6403125 32.7815625 -18.4446875 31.9771875 -19.2734375 31.1484375 C-19.75425781 30.68566406 -20.23507813 30.22289062 -20.73046875 29.74609375 C-24.69334883 25.28103052 -24.96754279 20.91053314 -24.68359375 15.0859375 C-23.95205522 9.84672825 -22.45271804 6.20218345 -18.578125 2.55078125 C-12.85573136 -1.60780037 -6.65861498 -2.49412039 0 0 Z " fill="#F0F1F2" transform="translate(267.2734375,248.8515625)"/>
<path d="M0 0 C0.495 4.95 0.495 4.95 1 10 C-0.24265625 10.36609375 -1.4853125 10.7321875 -2.765625 11.109375 C-17.01917967 15.35743517 -31.12697996 19.98589577 -45.21972656 24.73535156 C-49.47584848 26.16898348 -53.73645112 27.58862456 -58 29 C-58.64964722 29.21674377 -59.29929443 29.43348755 -59.96862793 29.65679932 C-61.77537304 30.25616732 -63.5867981 30.84137336 -65.3984375 31.42578125 C-66.41341309 31.75618408 -67.42838867 32.08658691 -68.47412109 32.42700195 C-71 33 -71 33 -74 32 C-74.48828125 26.04296875 -74.48828125 26.04296875 -74 24 C-70.55910212 21.61387115 -67.13768832 20.23584784 -63.16015625 18.984375 C-62.02545898 18.62375977 -60.89076172 18.26314453 -59.72167969 17.89160156 C-58.51415039 17.51487305 -57.30662109 17.13814453 -56.0625 16.75 C-54.16563192 16.14972529 -52.26876441 15.54944873 -50.37197876 14.94891357 C-48.4617297 14.34523481 -46.55058318 13.74448153 -44.63916016 13.14453125 C-40.41588207 11.81629244 -36.19835276 10.47060941 -31.98144531 9.12231445 C-28.47365658 8.00206694 -24.96320243 6.89031716 -21.45263672 5.77880859 C-19.03064827 5.00973203 -16.61089756 4.23392297 -14.19140625 3.45703125 C-12.73182567 2.99201533 -11.27219351 2.52716128 -9.8125 2.0625 C-7.93498047 1.46115234 -7.93498047 1.46115234 -6.01953125 0.84765625 C-3 0 -3 0 0 0 Z " fill="#D3CBF5" transform="translate(225,146)"/>
<path d="M0 0 C3.3 0 6.6 0 10 0 C10.04898438 1.62550781 10.09796875 3.25101563 10.1484375 4.92578125 C10.22346565 7.05470492 10.29901346 9.18361032 10.375 11.3125 C10.4059375 12.38435547 10.436875 13.45621094 10.46875 14.56054688 C10.50742188 15.58857422 10.54609375 16.61660156 10.5859375 17.67578125 C10.6173584 18.62364502 10.6487793 19.57150879 10.68115234 20.5480957 C10.8489051 23.2530269 10.8489051 23.2530269 13 26 C15.95746492 26.58345476 15.95746492 26.58345476 19 26 C21.86623133 23.05997281 22.39432857 20.83509713 22.51171875 16.796875 C22.54716797 15.8171875 22.58261719 14.8375 22.61914062 13.828125 C22.64169922 12.81234375 22.66425781 11.7965625 22.6875 10.75 C22.72166016 9.71875 22.75582031 8.6875 22.79101562 7.625 C22.87338093 5.08344188 22.94256834 2.54222374 23 0 C25.97 0 28.94 0 32 0 C32 11.22 32 22.44 32 34 C29.03 34 26.06 34 23 34 C22.67 33.34 22.34 32.68 22 32 C21.44054687 32.4846875 20.88109375 32.969375 20.3046875 33.46875 C16.42383492 36.04721476 12.49197566 35.75102432 8 35 C4.54808425 33.35153411 2.51181713 31.07237875 0.8515625 27.59375 C-0.40964302 22.27123129 -0.20841522 17.07265574 -0.125 11.625 C-0.11597656 10.50738281 -0.10695312 9.38976562 -0.09765625 8.23828125 C-0.07418346 5.49196538 -0.04134728 2.74609528 0 0 Z " fill="#F6F6F6" transform="translate(148,249)"/>
<path d="M0 0 C0 2.64 0 5.28 0 8 C-6.17110127 10.92853225 -12.31606514 13.12124109 -18.875 15 C-31.12008326 18.60143424 -43.15284456 22.77347206 -55.19287109 27 C-55.92947464 27.25657379 -56.66607819 27.51314758 -57.42500305 27.77749634 C-58.80861552 28.25946699 -60.19087661 28.74534278 -61.57145691 29.2359314 C-65.3567341 30.55129888 -69.00989924 31.56577984 -73 32 C-74 31 -74 31 -74.0625 27.4375 C-74.041875 26.303125 -74.02125 25.16875 -74 24 C-67.55480327 20.95346747 -61.05445704 18.60686653 -54.25 16.5 C-52.06473998 15.81365846 -49.87987037 15.12607314 -47.6953125 14.4375 C-46.49165039 14.05851563 -45.28798828 13.67953125 -44.04785156 13.2890625 C-39.43601384 11.8272708 -34.83929038 10.31986654 -30.2421875 8.8125 C-28.55306645 8.2597456 -26.86393884 7.70701124 -25.17480469 7.15429688 C-22.65375163 6.32914537 -20.13316429 5.50269166 -17.6138916 4.67211914 C-15.24647882 3.89202509 -12.87734531 3.11737629 -10.5078125 2.34375 C-9.79325897 2.10664307 -9.07870544 1.86953613 -8.34249878 1.62524414 C-5.43668933 0.68095683 -3.07732998 0 0 0 Z " fill="#D7CCF3" transform="translate(225,178)"/>
<path d="M0 0 C-0.03158577 7.70692833 -1.55064841 12.47667531 -7 18 C-12.74806069 23.38354952 -20.24898098 26.15561328 -28.125 26.1875 C-29.07375 26.125625 -30.0225 26.06375 -31 26 C-31.70908819 19.61820632 -30.47926989 15.71763072 -26.96875 10.3359375 C-20.15564871 2.25213875 -10.2081317 -0.42533882 0 0 Z " fill="#36F9F9" transform="translate(180,17)"/>
<path d="M0 0 C3.3 0 6.6 0 10 0 C10 15.51 10 31.02 10 47 C6.7 47 3.4 47 0 47 C0 31.49 0 15.98 0 0 Z " fill="#F6F6F6" transform="translate(70,237)"/>
<path d="M0 0 C0 0.66 0 1.32 0 2 C1.20785156 2.23203125 2.41570312 2.4640625 3.66015625 2.703125 C10.11822033 4.14077254 16.23657481 6.47349826 22.4375 8.75 C30.63648376 11.72396294 38.8339415 14.66723699 47.125 17.375 C52.3855964 19.09825815 57.56223185 20.93073504 62.67578125 23.0546875 C67.06521714 24.83997067 71.53848331 26.40538947 76 28 C76 28.33 76 28.66 76 29 C69.85903073 28.47770883 64.50767164 27.44705559 58.703125 25.41796875 C57.569888 25.0347924 57.569888 25.0347924 56.41375732 24.64387512 C54.02282028 23.83364532 51.63634701 23.01113866 49.25 22.1875 C46.11043979 21.11535306 42.96925661 20.04800137 39.828125 18.98046875 C39.06838379 18.72114563 38.30864258 18.46182251 37.52587891 18.19464111 C31.95723246 16.30105385 26.35527506 14.54236943 20.72558594 12.83813477 C17.27734527 11.77777914 13.89195968 10.60339661 10.5 9.375 C9.3759375 8.97023437 8.251875 8.56546875 7.09375 8.1484375 C4.37720887 7.14002451 1.68400044 6.09162704 -1 5 C-2.83696979 9.69044459 -3.24287041 13.60139382 -3.1875 18.625 C-3.18105469 19.91664063 -3.17460938 21.20828125 -3.16796875 22.5390625 C-3.03663187 25.24521308 -2.81208875 27.44029626 -2 30 C-6.29942535 29.52228607 -8.2935135 28.38310813 -11 25 C-12.94980163 19.08645691 -12.85338143 12.27568382 -10.6875 6.5 C-7.25806452 1.41935484 -7.25806452 1.41935484 -3.9375 0.3125 C-2 0 -2 0 0 0 Z " fill="#2ED1F7" transform="translate(73,132)"/>
<path d="M0 0 C4.13209456 2.21178505 7.30178935 5.66012833 9 10 C9.9041167 17.08782845 9.33545772 23.17092423 5 29 C1.09672431 32.99289171 -2.14885541 35.15125493 -7.75 35.3125 C-12.64271786 35.24199974 -15.32043315 34.41674064 -19 31 C-23.11972302 25.79613934 -23.6294533 21.45640303 -23.3828125 14.87109375 C-22.63963938 9.29729535 -20.13628702 5.82118907 -15.9375 2.125 C-10.6814563 -1.67724438 -6.13950341 -1.39621106 0 0 Z M-16 8 C-18.85632372 12.43222647 -19.56138108 15.76044321 -19 21 C-17.27091921 25.64121685 -15.19354587 28.34067823 -11 31 C-9.68 31 -8.36 31 -7 31 C-6.67 30.01 -6.34 29.02 -6 28 C-4.906875 27.9175 -3.81375 27.835 -2.6875 27.75 C0.91832218 27.31102388 0.91832218 27.31102388 2.9375 25.4375 C4.95288746 20.81396405 4.39598644 16.47080678 3.125 11.75 C1.51559392 7.05847539 1.51559392 7.05847539 -2 4 C-7.829084 3.30142608 -11.884336 3.40014024 -16 8 Z " fill="#061333" transform="translate(189,70)"/>
<path d="M0 0 C3.3 0 6.6 0 10 0 C10 11.55 10 23.1 10 35 C6.7 35 3.4 35 0 35 C0 23.45 0 11.9 0 0 Z " fill="#F3F3F4" transform="translate(187,249)"/>
<path d="M0 0 C3.04021312 2.20415451 3.78019197 3.97474157 4.55859375 7.60546875 C5.12027763 11.89627035 5.4020255 15.01503753 3.75 19.0625 C2 21 2 21 -1 23 C-3.6875 23.125 -3.6875 23.125 -6 23 C-6 22.01 -6 21.02 -6 20 C-6.78375 19.9175 -7.5675 19.835 -8.375 19.75 C-11 19 -11 19 -12.140625 17.296875 C-13.75804521 12.9739519 -13.52996337 8.53566054 -13 4 C-10.27556823 -1.09350288 -5.22269107 -1.05605886 0 0 Z " fill="#021D3A" transform="translate(140,83)"/>
<path d="M0 0 C9.92050829 4.02571351 18.71902509 2.22420942 28.56640625 -1.09765625 C35.59798536 -3.26049882 41.90615382 -2.03709553 48.5 1 C55.67226425 4.97293614 60.59771309 11.17990791 63.15625 19.0078125 C63.55030157 21.29152046 63.59656324 23.43369949 63.5625 25.75 C63.55347656 26.54921875 63.54445313 27.3484375 63.53515625 28.171875 C63.52355469 28.77515625 63.51195312 29.3784375 63.5 30 C63.17 30 62.84 30 62.5 30 C62.35304688 29.24976562 62.20609375 28.49953125 62.0546875 27.7265625 C60.11269492 18.86482624 57.36867125 10.52874723 49.8125 4.9375 C43.26353507 1.10697334 35.38241926 0.74076845 28.03125 2.63671875 C26.59960868 3.16839714 25.17114328 3.70871085 23.74609375 4.2578125 C16.49304426 6.65447233 9.64901004 6.28716043 2.5 4 C-6.53899676 1.15463499 -14.08950145 0.84456897 -23.5 2 C-23.5 2.66 -23.5 3.32 -23.5 4 C-24.71060834 5.08719681 -25.96990544 6.12054624 -27.25 7.125 C-31.39312997 10.63860846 -33.51253659 13.99996049 -35.5 19 C-35.9125 19.99 -36.325 20.98 -36.75 22 C-36.9975 22.66 -37.245 23.32 -37.5 24 C-38.16 24 -38.82 24 -39.5 24 C-38.91529782 16.98357379 -36.38080417 11.82120626 -32.5 6 C-31.84 6 -31.18 6 -30.5 6 C-30.5 5.34 -30.5 4.68 -30.5 4 C-28.890625 2.74609375 -28.890625 2.74609375 -26.75 1.4375 C-26.05390625 1.00308594 -25.3578125 0.56867187 -24.640625 0.12109375 C-17.25549713 -3.74666482 -7.5031171 -3.11803545 0 0 Z " fill="#5FECEF" transform="translate(137.5,47)"/>
<path d="M0 0 C3 2 3 2 3.51171875 4.3828125 C3.56972656 5.28773437 3.62773438 6.19265625 3.6875 7.125 C3.78611328 8.49011719 3.78611328 8.49011719 3.88671875 9.8828125 C3.92410156 10.58148438 3.96148437 11.28015625 4 12 C4.99 12 5.98 12 7 12 C9.60250805 15.37362154 10.36265043 17.76907828 10 22 C7.29120665 23.35439668 4.99066732 23.06501451 2 23 C2 22.34 2 21.68 2 21 C0.35 20.67 -1.3 20.34 -3 20 C-3 19.34 -3 18.68 -3 18 C-3.99 18 -4.98 18 -6 18 C-6 17.34 -6 16.68 -6 16 C-6.61875 15.92265625 -7.2375 15.8453125 -7.875 15.765625 C-10 15 -10 15 -11.1875 13.109375 C-12.01602841 10.70345596 -12.70301387 8.53083835 -13 6 C-9.67059708 0.08106148 -6.4922927 -0.34169962 0 0 Z " fill="#031F3D" transform="translate(82,50)"/>
<path d="M0 0 C0.69802734 -0.01611328 1.39605469 -0.03222656 2.11523438 -0.04882812 C5.244667 -0.0518057 7.48378597 0.13715096 10.265625 1.62109375 C11.8125 3.3125 11.8125 3.3125 12.375 6.6875 C11.8125 10.3125 11.8125 10.3125 9.6875 13.25 C6.38101204 15.62204571 4.7885803 15.77483492 0.8125 15.3125 C0.8125 14.6525 0.8125 13.9925 0.8125 13.3125 C0.24402344 13.14234375 -0.32445312 12.9721875 -0.91015625 12.796875 C-6.1197114 11.16182263 -10.54113141 9.17940828 -15.1875 6.3125 C-15.1875 4.9925 -15.1875 3.6725 -15.1875 2.3125 C-9.99451072 0.60865646 -5.45208648 -0.02559665 0 0 Z " fill="#021D3B" transform="translate(223.1875,85.6875)"/>
<path d="M0 0 C5.8022175 -0.36263859 9.63999211 0.74315457 15 3 C15 3.66 15 4.32 15 5 C15.66 5 16.32 5 17 5 C17.33 6.65 17.66 8.3 18 10 C18.66 10 19.32 10 20 10 C19.49785005 14.39381209 18.07786311 16.83419795 15 20 C12.65669488 20.92664861 11.43596127 21.12516857 9 20.42578125 C3.04407124 17.11046934 1.44236121 13.24395203 -0.50390625 6.83984375 C-0.9843551 4.08955782 -0.93796266 2.59026775 0 0 Z " fill="#021F3D" transform="translate(206,100)"/>
<path d="M0 0 C2.5 1.375 2.5 1.375 4 4 C4.90894571 9.13337913 4.84331976 12.75982388 1.875 17.125 C-1.54735256 19.35696906 -3.00022668 19.83328611 -7 19 C-9.875 17.125 -9.875 17.125 -12 14 C-12.85666747 9.38889421 -12.84983345 5.48720853 -10.5 1.375 C-6.93572591 -0.58535075 -3.9741072 -0.76550426 0 0 Z " fill="#090D28" transform="translate(224,257)"/>
<path d="M0 0 C1.18142578 0.03673828 1.18142578 0.03673828 2.38671875 0.07421875 C4.3125 0.3125 4.3125 0.3125 5.3125 1.3125 C5.46599136 3.78607237 5.54409885 6.21254519 5.5625 8.6875 C5.583125 9.37328125 5.60375 10.0590625 5.625 10.765625 C5.66405844 15.78463448 5.66405844 15.78463448 4.01171875 18.265625 C1.11745389 20.04875829 -1.39267523 19.65932366 -4.6875 19.3125 C-6.87890625 18.16015625 -6.87890625 18.16015625 -8.6875 16.3125 C-9.21875 13.53515625 -9.21875 13.53515625 -9.1875 10.375 C-9.1978125 9.33472656 -9.208125 8.29445313 -9.21875 7.22265625 C-8.24203893 1.87229049 -5.32624173 -0.25530745 0 0 Z " fill="#08435E" transform="translate(114.6875,79.6875)"/>
<path d="M0 0 C1.875 1 1.875 1 3 3 C3.58606955 7.46529184 3.54014875 10.18977687 1 14 C0.34 14 -0.32 14 -1 14 C-1.33 14.99 -1.66 15.98 -2 17 C-2.66 17 -3.32 17 -4 17 C-4.99 19.475 -4.99 19.475 -6 22 C-8.31 21.67 -10.62 21.34 -13 21 C-12.45596601 16.32130768 -11.59364078 11.7349187 -10.625 7.125 C-10.39039063 5.99320313 -10.15578125 4.86140625 -9.9140625 3.6953125 C-9.61242187 2.80585937 -9.31078125 1.91640625 -9 1 C-5.72429875 -0.09190042 -3.43202271 -0.28600189 0 0 Z " fill="#073450" transform="translate(218,44)"/>
<path d="M0 0 C0 1.65 0 3.3 0 5 C-0.99 5.495 -0.99 5.495 -2 6 C-2.33 6.99 -2.66 7.98 -3 9 C-3.66 9 -4.32 9 -5 9 C-5.1546875 10.1446875 -5.1546875 10.1446875 -5.3125 11.3125 C-6.07267758 14.28410326 -6.61086468 15.1560365 -9 17 C-11.2265625 17.328125 -11.2265625 17.328125 -13.625 17.25 C-14.81996094 17.22679687 -14.81996094 17.22679687 -16.0390625 17.203125 C-18 17 -18 17 -19 16 C-19.63029996 12.54959508 -19.69576135 9.44246102 -19 6 C-14.30117263 -0.70698543 -7.52024128 -0.74649454 0 0 Z " fill="#0E516A" transform="translate(92,95)"/>
<path d="M0 0 C1.875 0.3125 1.875 0.3125 4 1 C7.47709814 6.21564722 6.43598881 12.19672817 5.5 18.21484375 C4.18945056 24.2389034 3.07681699 28.31930768 -2 32 C-12.24691046 35.41563682 -23.77249091 32.09973016 -33.984375 29.97265625 C-38.64340654 29.01786249 -43.26708734 28.45508776 -48 28 C-47.69964844 28.60328125 -47.39929688 29.2065625 -47.08984375 29.828125 C-46.70957031 30.62734375 -46.32929687 31.4265625 -45.9375 32.25 C-45.55464844 33.03890625 -45.17179687 33.8278125 -44.77734375 34.640625 C-43.91435909 37.25993522 -44.06954067 38.44855176 -45 41 C-46.18007431 39.11248318 -47.34359173 37.21460805 -48.5 35.3125 C-49.1496875 34.25675781 -49.799375 33.20101562 -50.46875 32.11328125 C-52.02895353 28.94113274 -52.14243745 27.43121635 -52 24 C-46.53711187 24.97711263 -41.08094134 25.97376767 -35.640625 27.0703125 C-18.52186072 31.30000397 -18.52186072 31.30000397 -1.7265625 28.84765625 C2.71279402 24.09694215 2.30943752 17.91970545 2.25 11.8125 C2.25773437 11.00619141 2.26546875 10.19988281 2.2734375 9.36914062 C2.26957031 8.20608398 2.26957031 8.20608398 2.265625 7.01953125 C2.26336914 6.31932861 2.26111328 5.61912598 2.25878906 4.89770508 C2.09587036 2.6701857 2.09587036 2.6701857 0 0 Z " fill="#4ADFED" transform="translate(152,79)"/>
<path d="M0 0 C1.98 0.66 3.96 1.32 6 2 C5.125 6.75 5.125 6.75 4 9 C3.90166064 11.47005337 3.86096919 13.90557661 3.875 16.375 C3.87113281 17.04789063 3.86726563 17.72078125 3.86328125 18.4140625 C3.86985359 21.75280945 3.96890997 24.80853085 5 28 C0.70057465 27.52228607 -1.2935135 26.38310813 -4 23 C-5.96197065 17.04954954 -5.85939654 10.2266183 -3.625 4.4375 C-2 2 -2 2 0 0 Z " fill="#338AEE" transform="translate(66,134)"/>
<path d="M0 0 C4.75 0.875 4.75 0.875 7 2 C6.67386719 2.83273438 6.34773438 3.66546875 6.01171875 4.5234375 C4.88652808 8.3899228 4.7681928 11.60512836 4.8125 15.625 C4.81894531 16.91664063 4.82539062 18.20828125 4.83203125 19.5390625 C4.96336813 22.24521308 5.18791125 24.44029626 6 27 C2.31510701 26.09924838 0.45605353 25.62903935 -1.8125 22.5 C-2.204375 21.675 -2.59625 20.85 -3 20 C-3.33 19.34 -3.66 18.68 -4 18 C-5.03134153 6.70596493 -5.03134153 6.70596493 -2 2.25 C-1.34 1.5075 -0.68 0.765 0 0 Z " fill="#686EEC" transform="translate(65,166)"/>
<path d="M0 0 C0.99 0 1.98 0 3 0 C3.495 4.95 3.495 4.95 4 10 C2.75734375 10.36609375 1.5146875 10.7321875 0.234375 11.109375 C-14.01917967 15.35743517 -28.12697996 19.98589577 -42.21972656 24.73535156 C-46.47584848 26.16898348 -50.73645112 27.58862456 -55 29 C-55.64964722 29.21674377 -56.29929443 29.43348755 -56.96862793 29.65679932 C-58.77537304 30.25616732 -60.5867981 30.84137336 -62.3984375 31.42578125 C-63.41341309 31.75618408 -64.42838867 32.08658691 -65.47412109 32.42700195 C-68 33 -68 33 -71 32 C-67.91329957 29.40040802 -65.18171628 28.25534015 -61.3125 27.16015625 C-60.15532471 26.82491943 -58.99814941 26.48968262 -57.8059082 26.14428711 C-56.5499585 25.78729736 -55.29400879 25.43030762 -54 25.0625 C-40.04993964 21.02338786 -26.28834361 16.50124079 -12.54492188 11.81079102 C-11.79671677 11.55721832 -11.04851166 11.30364563 -10.27763367 11.04238892 C-8.87115434 10.56554063 -7.46596794 10.0848555 -6.06233215 9.59970093 C-3.23371496 8.64201695 -1.01108549 8 2 8 C2 5.69 2 3.38 2 1 C1.01 0.505 1.01 0.505 0 0 Z " fill="#7273E6" transform="translate(222,146)"/>
<path d="M0 0 C2.5625 2 2.5625 2 4 4 C2.80375 3.896875 1.6075 3.79375 0.375 3.6875 C-3.45178913 3.72154617 -6.05589816 4.50545776 -8.9375 7.23828125 C-11.10132233 10.8260896 -10.67792865 14.991095 -10 19 C-8.72638894 22.29605826 -8.07290223 22.95139851 -5 25 C-5 25.66 -5 26.32 -5 27 C-7.94606829 26.86297357 -10.20159518 26.70124445 -12.4765625 24.703125 C-15.47945664 21.15584654 -16.83317419 18.41801934 -17.375 13.8125 C-16.89587495 8.94139534 -15.07075637 5.76275781 -12 2 C-8.00706063 -0.66195958 -4.69736163 -0.72919332 0 0 Z " fill="#34ECEE" transform="translate(187,74)"/>
<path d="M0 0 C-0.62109375 1.859375 -0.62109375 1.859375 -2 4 C-4.59765625 5.203125 -4.59765625 5.203125 -8.0625 6.25 C-9.40242455 6.66510385 -10.74226135 7.08049102 -12.08203125 7.49609375 C-12.84338379 7.7266748 -13.60473633 7.95725586 -14.38916016 8.19482422 C-17.42033874 9.1296313 -20.43436132 10.11149616 -23.44921875 11.09765625 C-25.7160721 11.83616386 -27.98299938 12.57444458 -30.25 13.3125 C-31.35738525 13.6744043 -32.46477051 14.03630859 -33.60571289 14.40917969 C-34.64848389 14.7446582 -35.69125488 15.08013672 -36.765625 15.42578125 C-38.16989746 15.88078003 -38.16989746 15.88078003 -39.60253906 16.3449707 C-42 17 -42 17 -45 17 C-45 15.68 -45 14.36 -45 13 C-38.91617127 10.97746611 -32.82861358 8.96648726 -26.73828125 6.96362305 C-24.66545627 6.28042956 -22.59351039 5.59456298 -20.52246094 4.90600586 C-17.55108248 3.91862675 -14.57670913 2.94080053 -11.6015625 1.96484375 C-10.67131256 1.65344955 -9.74106262 1.34205536 -8.78262329 1.02122498 C-7.92188202 0.74085892 -7.06114075 0.46049286 -6.17431641 0.17163086 C-5.41486725 -0.07929825 -4.65541809 -0.33022736 -3.87295532 -0.58876038 C-2 -1 -2 -1 0 0 Z " fill="#0B0D36" transform="translate(218,159)"/>
<path d="M0 0 C6.0260712 4.05181549 10.25627739 9.89973969 12.51953125 16.82421875 C12.91358282 19.10792671 12.95984449 21.25010574 12.92578125 23.56640625 C12.91675781 24.365625 12.90773437 25.16484375 12.8984375 25.98828125 C12.88683594 26.5915625 12.87523437 27.19484375 12.86328125 27.81640625 C12.53328125 27.81640625 12.20328125 27.81640625 11.86328125 27.81640625 C11.71632812 27.06617187 11.569375 26.3159375 11.41796875 25.54296875 C9.47597617 16.68123249 6.7319525 8.34515348 -0.82421875 2.75390625 C-9.99379633 -2.60943158 -21.94607837 -0.21183855 -32.13671875 0.81640625 C-22.07964527 -5.8883094 -10.40895199 -5.7658363 0 0 Z " fill="#67DEE4" transform="translate(188.13671875,49.18359375)"/>
<path d="M0 0 C1.7265625 1.05078125 1.7265625 1.05078125 3 3 C3.3258438 5.74472033 3.46448502 8.19729377 3.4375 10.9375 C3.4674707 12.01161133 3.4674707 12.01161133 3.49804688 13.10742188 C3.49481027 16.59971894 3.27197878 18.62837382 1.1875 21.4765625 C-2.00683398 23.70118795 -4.19295976 23.46753126 -8 23 C-10.9375 21.5 -10.9375 21.5 -13 20 C-12.67 19.34 -12.34 18.68 -12 18 C-11.01 18.66 -10.02 19.32 -9 20 C-5.45812169 20.33338596 -5.45812169 20.33338596 -2 20 C0.38392117 18.06029948 0.38392117 18.06029948 0.1953125 14.5234375 C0.18201493 13.14049032 0.15816232 11.75761346 0.125 10.375 C0.11597656 9.66859375 0.10695313 8.9621875 0.09765625 8.234375 C0.07407603 6.48943902 0.03820461 4.74467705 0 3 C-1.43655854 2.91868537 -2.8744483 2.86066441 -4.3125 2.8125 C-5.11300781 2.77769531 -5.91351563 2.74289063 -6.73828125 2.70703125 C-9.02955041 2.83537294 -9.02955041 2.83537294 -10.75 4.15625 C-12.45467832 6.67065052 -12.51024248 8.67412222 -12.6875 11.6875 C-12.78611328 13.17830078 -12.78611328 13.17830078 -12.88671875 14.69921875 C-12.94279297 15.83810547 -12.94279297 15.83810547 -13 17 C-13.66 17 -14.32 17 -15 17 C-15.9251672 12.2816473 -16.35806317 9.26697145 -14 5 C-9.84272747 -0.71624973 -6.98259657 -1.93576935 0 0 Z " fill="#032945" transform="translate(119,78)"/>
<path d="M0 0 C3.45826342 -0.05789006 6.91640293 -0.09355821 10.375 -0.125 C11.35984375 -0.14175781 12.3446875 -0.15851563 13.359375 -0.17578125 C14.77089844 -0.18544922 14.77089844 -0.18544922 16.2109375 -0.1953125 C17.51490479 -0.21102295 17.51490479 -0.21102295 18.84521484 -0.22705078 C21 0 21 0 23 2 C23.3125 4.5 23.3125 4.5 23 7 C20 9 20 9 17.9375 8.75 C16 8 16 8 14 6 C11.63969304 5.54152311 9.2601826 5.17856869 6.875 4.875 C5.59367188 4.70742187 4.31234375 4.53984375 2.9921875 4.3671875 C1.51105469 4.18542969 1.51105469 4.18542969 0 4 C0 2.68 0 1.36 0 0 Z " fill="#33E6E9" transform="translate(208,88)"/>
<path d="M0 0 C2 2 2 2 2.3125 5.9375 C2.23330121 8.49981382 2.11578846 9.78772116 0.875 12.0625 C-2.02633464 13.51316732 -3.96340742 12.90451694 -7 12 C-9.31282587 8.53076119 -9.42478586 7.07794425 -9 3 C-6.78679539 -0.68867435 -4.02162985 -0.42783296 0 0 Z " fill="#32F2F4" transform="translate(189,82)"/>
<path d="M0 0 C2.625 0.375 2.625 0.375 5 1 C5.33 1.99 5.66 2.98 6 4 C10.62 4 15.24 4 20 4 C20 5.32 20 6.64 20 8 C14.87416389 8.10251672 10.05002222 8.03590199 5 7 C5 7.66 5 8.32 5 9 C2.125 9.125 2.125 9.125 -1 9 C-1.66 8.34 -2.32 7.68 -3 7 C-2.67028521 3.70285207 -2.3773161 2.3773161 0 0 Z " fill="#33EBEE" transform="translate(71,78)"/>
<path d="M0 0 C1.4540625 0.0309375 1.4540625 0.0309375 2.9375 0.0625 C3.41735967 1.33307182 3.8963593 2.60396848 4.375 3.875 C4.77525391 4.93654297 4.77525391 4.93654297 5.18359375 6.01953125 C5.79975186 7.68922396 6.37469235 9.37407704 6.9375 11.0625 C9.2475 11.3925 11.5575 11.7225 13.9375 12.0625 C13.9375 13.3825 13.9375 14.7025 13.9375 16.0625 C7.9848582 15.7123446 5.9289244 14.36095705 1.9375 10.0625 C-1.22895474 8.26929176 -1.22895474 8.26929176 -4.0625 7.0625 C-4.10504356 5.06295254 -4.10330783 3.06208364 -4.0625 1.0625 C-3.0625 0.0625 -3.0625 0.0625 0 0 Z " fill="#34EDEF" transform="translate(78.0625,54.9375)"/>
<path d="M0 0 C2.5 0.25 2.5 0.25 4.5 2.25 C4.9375 4.5625 4.9375 4.5625 4.5 7.25 C2.3125 9.6875 2.3125 9.6875 -0.5 12.25 C-2.21921404 14.21083331 -3.85335021 16.22697312 -5.5 18.25 C-6.82 17.92 -8.14 17.59 -9.5 17.25 C-9.5 16.59 -9.5 15.93 -9.5 15.25 C-8.2625 14.198125 -8.2625 14.198125 -7 13.125 C-3.58525174 9.1980395 -4.25062375 7.32065051 -4.5 2.25 C-2.5 0.25 -2.5 0.25 0 0 Z " fill="#33ECEF" transform="translate(214.5,45.75)"/>
<path d="M0 0 C1.99954746 -0.04254356 4.00041636 -0.04080783 6 0 C7 1 7 1 7.125 4 C7 7 7 7 6 8 C4.61249279 8.34760707 3.21438266 8.65336633 1.8125 8.9375 C-0.98678881 9.52752442 -3.53652354 10.18571969 -6.25 11.125 C-9.00696072 12.00221477 -11.12905232 12.16887928 -14 12 C-13.67 10.68 -13.34 9.36 -13 8 C-9 7 -5 6 -1 5 C-0.67 3.35 -0.34 1.7 0 0 Z " fill="#34F5F7" transform="translate(222,66)"/>
<path d="M0 0 C0.33 0 0.66 0 1 0 C1.22786458 2.01822917 1.45572917 4.03645833 1.68359375 6.0546875 C1.91292961 8.07404316 1.91292961 8.07404316 3 10 C1.94075988 12.58321806 0.82323733 15.01646354 -0.4375 17.5 C-0.98241089 18.57942871 -0.98241089 18.57942871 -1.53833008 19.68066406 C-5.69641097 27.67263345 -10.64584791 34.65590257 -18 40 C-18.66 40 -19.32 40 -20 40 C-18.86599124 36.59797371 -18.22299463 36.27779648 -15.4375 34.25 C-11.38636118 30.83390457 -9.06455742 27.12184213 -6.625 22.5 C-6.29169678 21.87125977 -5.95839355 21.24251953 -5.61499023 20.59472656 C-3.53038649 16.48225028 -2.13961711 12.46637818 -1 8 C-2.98 8.99 -2.98 8.99 -5 10 C-3.35 6.7 -1.7 3.4 0 0 Z " fill="#7086EB" transform="translate(197,91)"/>
<path d="M0 0 C0 0.99 0 1.98 0 3 C-1.6396875 3.5259375 -1.6396875 3.5259375 -3.3125 4.0625 C-5.61030473 5.02340016 -6.74786398 5.60429899 -8.09765625 7.72265625 C-8.80497577 9.45363416 -9.40868068 11.22604203 -10 13 C-11 14 -11 14 -14 14.125 C-17 14 -17 14 -18 13 C-18.04080783 11.00041636 -18.04254356 8.99954746 -18 7 C-16.948125 6.5875 -15.89625 6.175 -14.8125 5.75 C-12.17303344 4.64227207 -10.672454 3.72038756 -8.4375 1.8125 C-5.42563114 -0.4270948 -3.66724889 -0.34113943 0 0 Z " fill="#35F1F2" transform="translate(92,96)"/>
<path d="M0 0 C1.91903365 2.8221083 1.99110212 4.12901932 1.75 7.625 C1 11 1 11 -1 13 C-3.4609375 13.66796875 -3.4609375 13.66796875 -6.375 14.1875 C-7.80972656 14.45626953 -7.80972656 14.45626953 -9.2734375 14.73046875 C-11.87310329 14.98745577 -13.54700305 14.81960325 -16 14 C-10.91059256 11.94637945 -6.45479185 10.56820748 -1 10 C-1 8.02 -1 6.04 -1 4 C-2.98 4 -4.96 4 -7 4 C-7.04125 4.598125 -7.0825 5.19625 -7.125 5.8125 C-8 8 -8 8 -10.875 9.75 C-14 11 -14 11 -17 11 C-16.27323093 6.3732448 -13.73331199 4.34897979 -10.27734375 1.41796875 C-6.67483597 -0.82510213 -4.14075444 -0.51759431 0 0 Z " fill="#0B4761" transform="translate(229,63)"/>
<path d="M0 0 C2.71340928 3.20322242 3.93064936 6.26274969 5.1875 10.25 C5.53167969 11.32765625 5.87585937 12.4053125 6.23046875 13.515625 C6.48441406 14.33546875 6.73835938 15.1553125 7 16 C3.04 16 -0.92 16 -5 16 C-4.22181136 12.10905678 -3.31126232 8.86563783 -1.9375 5.1875 C-1.57527344 4.21167969 -1.21304688 3.23585937 -0.83984375 2.23046875 C-0.42412109 1.12638672 -0.42412109 1.12638672 0 0 Z " fill="#14162E" transform="translate(41,249)"/>
<path d="M0 0 C6.46153846 0.46153846 6.46153846 0.46153846 9 3 C9.36023622 5.80984248 9.38332602 7.38241919 7.875 9.8125 C5.12844028 11.55198782 3.18153026 11.39769128 0 11 C-1.9375 9.875 -1.9375 9.875 -3 8 C-2.77669287 4.35265021 -2.61627165 2.61627165 0 0 Z " fill="#EAEAEC" transform="translate(189,233)"/>
<path d="M0 0 C4.89330845 0.44484622 6.68862851 1.47499164 10 5 C12.59915538 6.19027984 12.59915538 6.19027984 15 7 C16 8 16 8 16.1875 10.4375 C16 13 16 13 14 15 C11.5 15.25 11.5 15.25 9 15 C7 13 7 13 6.1875 9.5625 C4.79914903 5.3974471 3.73531454 4.96595502 0 3 C0 2.01 0 1.02 0 0 Z " fill="#34EBEF" transform="translate(205,101)"/>
<path d="M0 0 C2.5625 0.1875 2.5625 0.1875 4.5625 2.1875 C4.828125 4.5 4.828125 4.5 4.8125 7.1875 C4.81765625 8.074375 4.8228125 8.96125 4.828125 9.875 C4.5625 12.1875 4.5625 12.1875 2.5625 14.1875 C0 14.375 0 14.375 -2.4375 14.1875 C-3.4375 13.1875 -3.4375 13.1875 -3.5703125 10.5 C-3.56773438 9.406875 -3.56515625 8.31375 -3.5625 7.1875 C-3.56507812 6.094375 -3.56765625 5.00125 -3.5703125 3.875 C-3.39170875 0.26090067 -3.39170875 0.26090067 0 0 Z " fill="#33F0F2" transform="translate(113.4375,82.8125)"/>
<path d="M0 0 C2.0625 1.375 2.0625 1.375 4 3 C5.9959722 3.67863055 7.99568551 4.34641919 10 5 C10.66 5.66 11.32 6.32 12 7 C10.04233719 7.08082094 8.08373272 7.13910778 6.125 7.1875 C4.48917969 7.23970703 4.48917969 7.23970703 2.8203125 7.29296875 C1.88960937 7.19628906 0.95890625 7.09960938 0 7 C-0.66 6.01 -1.32 5.02 -2 4 C-3.65 4.33 -5.3 4.66 -7 5 C-7.33 6.65 -7.66 8.3 -8 10 C-5.69 10.66 -3.38 11.32 -1 12 C-1 11.34 -1 10.68 -1 10 C0.98 10 2.96 10 5 10 C3.07876747 12.00476438 1.5698269 12.93016331 -1.19921875 13.26953125 C-3.52191423 13.310674 -5.70077487 13.34177671 -8 13 C-10 11 -10 11 -10.3125 7.0625 C-10.23081662 4.56208106 -10.12109418 3.22794199 -8.9375 1 C-5.85873258 -0.58904125 -3.39844421 -0.35773097 0 0 Z " fill="#063652" transform="translate(77,75)"/>
<path d="M0 0 C2.5 0.125 2.5 0.125 3.5 1.125 C3.59873816 3.12299572 3.62971799 5.12457158 3.625 7.125 C3.62757813 8.218125 3.63015625 9.31125 3.6328125 10.4375 C3.5 13.125 3.5 13.125 2.5 14.125 C0 14.25 0 14.25 -2.5 14.125 C-3.5 13.125 -3.5 13.125 -3.6328125 10.4375 C-3.63023437 9.344375 -3.62765625 8.25125 -3.625 7.125 C-3.62757813 6.031875 -3.63015625 4.93875 -3.6328125 3.8125 C-3.45293603 0.1726468 -3.45293603 0.1726468 0 0 Z " fill="#34F6F5" transform="translate(136.5,85.875)"/>
<path d="M0 0 C3.69996673 0.46249584 4.90070694 0.87189109 7.5 3.4375 C7.99609375 5.8125 7.99609375 5.8125 7.9375 8.4375 C7.93621094 9.30375 7.93492187 10.17 7.93359375 11.0625 C7.41428788 13.9069862 6.83308157 14.76286589 4.5 16.4375 C-1.95234608 18.65142425 -8.75431755 18.69584529 -15.5 18.4375 C-15.5 18.1075 -15.5 17.7775 -15.5 17.4375 C-14.92967041 17.35185791 -14.35934082 17.26621582 -13.77172852 17.17797852 C-11.20132184 16.789572 -8.63192106 16.39487171 -6.0625 16 C-5.16466797 15.86529297 -4.26683594 15.73058594 -3.34179688 15.59179688 C-2.48779297 15.45966797 -1.63378906 15.32753906 -0.75390625 15.19140625 C0.03685303 15.07095947 0.8276123 14.9505127 1.64233398 14.82641602 C3.50702617 14.61287558 3.50702617 14.61287558 4.5 13.4375 C4.75826769 11.94528668 4.95828547 10.44269402 5.125 8.9375 C5.22039062 8.1228125 5.31578125 7.308125 5.4140625 6.46875 C5.45660156 5.46328125 5.45660156 5.46328125 5.5 4.4375 C4.29643666 3.02764592 4.29643666 3.02764592 0.8125 3 C-1.87371793 3.00482265 -3.12097531 3.15426369 -5.29296875 4.77734375 C-6.73668495 6.29235457 -8.12191894 7.86255021 -9.5 9.4375 C-10.16 9.4375 -10.82 9.4375 -11.5 9.4375 C-11.83 10.7575 -12.16 12.0775 -12.5 13.4375 C-13.82 13.7675 -15.14 14.0975 -16.5 14.4375 C-16.12355752 11.83049537 -15.7656158 10.68062659 -13.79296875 8.875 C-13.09816406 8.400625 -12.40335938 7.92625 -11.6875 7.4375 C-9.23688161 5.72554318 -7.41116654 4.33520692 -5.4375 2.0625 C-3.5 0.4375 -3.5 0.4375 0 0 Z " fill="#03213E" transform="translate(224.5,60.5625)"/>
<path d="M0 0 C0.66 0.33 1.32 0.66 2 1 C0.845 1.61875 -0.31 2.2375 -1.5 2.875 C-4.08217176 4.66745324 -4.89464347 5.42009643 -5.46484375 8.55859375 C-5.43989832 11.07095451 -5.30498503 13.50686842 -5 16 C1.19863615 16.62314211 1.19863615 16.62314211 6.5625 14 C7.036875 13.34 7.51125 12.68 8 12 C7.9375 14.25 7.9375 14.25 7 17 C3.044157 20.30999108 3.044157 20.30999108 0 21 C-3.09941804 20.29234526 -5.60758724 19.10065511 -8 17 C-9.3197636 13.33562845 -9.47391624 9.85903225 -9 6 C-6.55099502 2.96974384 -3.6970676 1.23235587 0 0 Z " fill="#031B39" transform="translate(79,95)"/>
<path d="M0 0 C0.69222656 0.07605469 1.38445312 0.15210938 2.09765625 0.23046875 C3.9375 0.8125 3.9375 0.8125 5.9375 3.8125 C5.9375 4.8025 5.9375 5.7925 5.9375 6.8125 C0.9875 6.8125 -3.9625 6.8125 -9.0625 6.8125 C-6.92174477 1.46061193 -5.74531363 -0.74098437 0 0 Z " fill="#0F132D" transform="translate(261.0625,256.1875)"/>
<path d="M0 0 C0.33 0 0.66 0 1 0 C1 2.64 1 5.28 1 8 C1.66 8 2.32 8 3 8 C3.433125 8.515625 3.86625 9.03125 4.3125 9.5625 C5.1478125 10.2740625 5.1478125 10.2740625 6 11 C8.48823926 10.81931089 8.48823926 10.81931089 11 10 C11.763125 9.814375 12.52625 9.62875 13.3125 9.4375 C13.869375 9.293125 14.42625 9.14875 15 9 C13.9375 11.4375 13.9375 11.4375 12 14 C8.4375 14.75 8.4375 14.75 5 15 C4.01 15.495 4.01 15.495 3 16 C-0.875 12.25 -0.875 12.25 -2 10 C-1.9140625 7.87109375 -1.9140625 7.87109375 -1.625 5.4375 C-1.53476563 4.63183594 -1.44453125 3.82617188 -1.3515625 2.99609375 C-1 1 -1 1 0 0 Z " fill="#094965" transform="translate(178,83)"/>
<path d="M0 0 C5.0151841 0.75585259 9.59096713 2.59661719 14.3125 4.375 C15.12912109 4.67921875 15.94574219 4.9834375 16.78710938 5.296875 C19.19289036 6.19401086 21.59666782 7.09632722 24 8 C25.53511564 8.57562913 27.07026877 9.15115832 28.60546875 9.7265625 C29.72566406 10.14679688 30.84585938 10.56703125 32 11 C32 11.33 32 11.66 32 12 C24.19792687 11.47875863 17.33207557 9.40804775 9.9375 6.9375 C8.78572266 6.56044922 7.63394531 6.18339844 6.44726562 5.79492188 C3.62884995 4.87104288 0.81331858 3.93926223 -2 3 C-1.34 2.01 -0.68 1.02 0 0 Z " fill="#38B4FA" transform="translate(117,149)"/>
<path d="M0 0 C0.66 0.33 1.32 0.66 2 1 C1.34 1.66 0.68 2.32 0 3 C-0.32752234 5.71454956 -0.1308425 8.25230759 0 11 C1.00057979 12.22011391 1.00057979 12.22011391 2.99609375 12.1328125 C4.20458984 12.12894531 4.20458984 12.12894531 5.4375 12.125 C6.24058594 12.12757812 7.04367188 12.13015625 7.87109375 12.1328125 C10.05397931 12.13578326 10.05397931 12.13578326 12 11 C13.87379605 10.92966231 15.75001102 10.9156978 17.625 10.9375 C19.12933594 10.95103516 19.12933594 10.95103516 20.6640625 10.96484375 C21.43492188 10.97644531 22.20578125 10.98804687 23 11 C23 11.33 23 11.66 23 12 C14.91038514 13.95829294 7.34525522 15.51917486 -1 15 C-1.33 13.35 -1.66 11.7 -2 10 C-2.66 10 -3.32 10 -4 10 C-4.33 9.01 -4.66 8.02 -5 7 C-3.58511552 4.23760649 -2.19636905 2.19636905 0 0 Z " fill="#052D49" transform="translate(68,75)"/>
<path d="M0 0 C6.46994034 -0.36622304 6.46994034 -0.36622304 8.71875 1.1875 C10.44334597 3.62717234 10.30267769 5.23127272 10.1875 8.1875 C10.16042969 9.08855469 10.13335937 9.98960938 10.10546875 10.91796875 C10.07066406 11.60503906 10.03585938 12.29210937 10 13 C8.02 13.99 8.02 13.99 6 15 C6 10.71 6 6.42 6 2 C4.35 2 2.7 2 1 2 C1 6.29 1 10.58 1 15 C0.01 15 -0.98 15 -2 15 C-2.05429959 13.25034642 -2.09292823 11.50020213 -2.125 9.75 C-2.15980469 8.28820312 -2.15980469 8.28820312 -2.1953125 6.796875 C-1.99862781 3.9803502 -1.44568916 2.39050964 0 0 Z " fill="#10647C" transform="translate(133,85)"/>
<path d="M0 0 C1.08571289 -0.01836914 1.08571289 -0.01836914 2.19335938 -0.03710938 C4.06789471 -0.04234064 5.9419635 0.06501204 7.8125 0.1875 C9.8125 2.1875 9.8125 2.1875 10.1875 5.625 C9.8125 9.1875 9.8125 9.1875 8.0625 11.1875 C5.8125 12.1875 5.8125 12.1875 3.5625 11.875 C2.985 11.648125 2.4075 11.42125 1.8125 11.1875 C3.4625 10.5275 5.1125 9.8675 6.8125 9.1875 C6.855221 7.52138095 6.85313832 5.85367115 6.8125 4.1875 C5.75616862 2.90148781 5.75616862 2.90148781 3.3359375 3.125 C2.29695312 3.145625 1.25796875 3.16625 0.1875 3.1875 C-4.41115806 3.23140127 -8.66927075 3.00899623 -13.1875 2.1875 C-13.1875 1.8575 -13.1875 1.5275 -13.1875 1.1875 C-8.79790324 0.10950472 -4.49449277 0.00406741 0 0 Z " fill="#073D58" transform="translate(223.1875,85.8125)"/>
<path d="M0 0 C4.82029598 3.85623679 4.82029598 3.85623679 5.33203125 7.11328125 C5.3145776 9.07856214 5.16596091 11.04166127 5 13 C5.66 13 6.32 13 7 13 C6.34 14.98 5.68 16.96 5 19 C4.01 19 3.02 19 2 19 C1.01 19.33 0.02 19.66 -1 20 C-3.33299825 20.03954234 -5.66708189 20.04401732 -8 20 C-7.67 19.34 -7.34 18.68 -7 18 C-5.865625 17.855625 -4.73125 17.71125 -3.5625 17.5625 C-2.386875 17.376875 -1.21125 17.19125 0 17 C2.48421811 13.27367284 2.42240263 10.31338065 2 6 C1.10202887 2.63178728 1.10202887 2.63178728 0 0 Z " fill="#03203F" transform="translate(190,79)"/>
<path d="M0 0 C1.9375 2.5 1.9375 2.5 3 5 C3.66 5.33 4.32 5.66 5 6 C5.05447047 7.41623216 5.09300508 8.83308191 5.125 10.25 C5.14820313 11.03890625 5.17140625 11.8278125 5.1953125 12.640625 C4.9828378 15.20731941 4.28654105 16.7916067 3 19 C1.3932711 15.7865422 1.65848869 12.27891078 1.4765625 8.7265625 C0.93329481 5.61835885 0.27298842 4.18125346 -2 2 C-4.17125359 1.44388363 -4.17125359 1.44388363 -6.5 1.625 C-7.2734375 1.63789062 -8.046875 1.65078125 -8.84375 1.6640625 C-11.29113699 1.89075624 -11.29113699 1.89075624 -14 4 C-13.1875 2.0625 -13.1875 2.0625 -12 0 C-7.86244076 -1.37918641 -4.19878444 -1.17722928 0 0 Z " fill="#021937" transform="translate(142,82)"/>
<path d="M0 0 C2 1.5625 2 1.5625 3 3 C2.67 3.66 2.34 4.32 2 5 C1.34 4.34 0.68 3.68 0 3 C-2.10417968 2.64360439 -2.10417968 2.64360439 -4.4375 2.6875 C-5.21996094 2.67074219 -6.00242187 2.65398437 -6.80859375 2.63671875 C-9.03668569 2.85143297 -9.03668569 2.85143297 -10.7421875 4.1640625 C-12.46083139 6.67264209 -12.51010779 8.67183236 -12.6875 11.6875 C-12.78611328 13.17830078 -12.78611328 13.17830078 -12.88671875 14.69921875 C-12.94279297 15.83810547 -12.94279297 15.83810547 -13 17 C-13.66 17 -14.32 17 -15 17 C-15.9251672 12.2816473 -16.35806317 9.26697145 -14 5 C-9.73860875 -0.85941296 -7.09699557 -1.69805415 0 0 Z " fill="#011A37" transform="translate(119,78)"/>
<path d="M0 0 C0.33 0 0.66 0 1 0 C1.33 3.3 1.66 6.6 2 10 C2.96421875 10.40992187 3.9284375 10.81984375 4.921875 11.2421875 C6.19794431 11.78639353 7.47398444 12.33066797 8.75 12.875 C9.38421875 13.14441406 10.0184375 13.41382812 10.671875 13.69140625 C13.83015042 15.04025304 16.95262304 16.41474835 20 18 C17.29120665 19.35439668 14.99066732 19.06501451 12 19 C12 18.34 12 17.68 12 17 C10.35 16.67 8.7 16.34 7 16 C7 15.34 7 14.68 7 14 C6.01 14 5.02 14 4 14 C4 13.34 4 12.68 4 12 C3.360625 11.855625 2.72125 11.71125 2.0625 11.5625 C0 11 0 11 -1 10 C-1.0979057 8.50261876 -1.12974864 7.00057108 -1.125 5.5 C-1.12757812 4.6853125 -1.13015625 3.870625 -1.1328125 3.03125 C-1 1 -1 1 0 0 Z " fill="#042441" transform="translate(72,54)"/>
<path d="M0 0 C0.33 1.32 0.66 2.64 1 4 C0.01 3.34 -0.98 2.68 -2 2 C-4.28648848 1.75892674 -4.28648848 1.75892674 -6.6875 1.875 C-7.89986328 1.90207031 -7.89986328 1.90207031 -9.13671875 1.9296875 C-9.75160156 1.95289063 -10.36648437 1.97609375 -11 2 C-11.03738281 2.72445312 -11.07476562 3.44890625 -11.11328125 4.1953125 C-11.49860998 9.86191152 -11.984536 14.14903618 -15 19 C-15.33 19 -15.66 19 -16 19 C-16.0896657 15.77203485 -15.84664542 13.10436655 -15 10 C-14.87625 9.01 -14.7525 8.02 -14.625 7 C-13.9639967 3.82718414 -13.23000311 2.31577246 -11 0 C-6.94952424 -1.35015859 -4.2079832 -0.62084998 0 0 Z " fill="#021A37" transform="translate(220,43)"/>
<path d="M0 0 C0 0.66 0 1.32 0 2 C-1.29009643 2.50403768 -2.58213789 3.00309926 -3.875 3.5 C-4.59429687 3.7784375 -5.31359375 4.056875 -6.0546875 4.34375 C-8 5 -8 5 -10 5 C-9.67 6.32 -9.34 7.64 -9 9 C-10.9914056 9.38133299 -12.99279077 9.71325582 -15 10 C-16 9 -16 9 -16.0625 5.4375 C-16.041875 4.303125 -16.02125 3.16875 -16 2 C-15.67 2.66 -15.34 3.32 -15 4 C-13.75283203 3.566875 -13.75283203 3.566875 -12.48046875 3.125 C-11.39378906 2.75375 -10.30710938 2.3825 -9.1875 2 C-8.10855469 1.62875 -7.02960938 1.2575 -5.91796875 0.875 C-3 0 -3 0 0 0 Z " fill="#B8A9E7" transform="translate(167,200)"/>
<path d="M0 0 C0.99 0 1.98 0 3 0 C3.33 3.3 3.66 6.6 4 10 C1.31578673 10.8454215 -1.37156768 11.67647233 -4.0625 12.5 C-4.81466797 12.73847656 -5.56683594 12.97695312 -6.34179688 13.22265625 C-11.07832621 14.65796817 -15.05218166 15.26283232 -20 15 C-16.31568041 12.98351818 -12.40954452 11.69263097 -8.4375 10.375 C-7.76525391 10.14554688 -7.09300781 9.91609375 -6.40039062 9.6796875 C-3.47748655 8.70441861 -1.1026844 8 2 8 C2 5.69 2 3.38 2 1 C1.34 0.67 0.68 0.34 0 0 Z " fill="#797CE0" transform="translate(222,146)"/>
<path d="M0 0 C1.9375 1.5 1.9375 1.5 3 3 C2.67 3.66 2.34 4.32 2 5 C1.34 4.34 0.68 3.68 0 3 C-3.58343976 2.83322718 -3.58343976 2.83322718 -7 3 C-7.66 7.29 -8.32 11.58 -9 16 C-12 14 -12 14 -12.46875 12.01171875 C-12.5263143 7.73037383 -12.39059137 5.57996901 -9.9375 1.9375 C-6.2853074 -0.47139299 -4.29702259 -0.63659594 0 0 Z " fill="#043451" transform="translate(140,83)"/>
<path d="M0 0 C1.875 0.3125 1.875 0.3125 4 1 C7.81559481 6.72339221 6.29663635 14.18579489 5 20.6875 C4.67751769 22.1274731 4.34837329 23.56607064 4 25 C3.67 25 3.34 25 3 25 C2.98018066 24.34926514 2.96036133 23.69853027 2.93994141 23.02807617 C2.84470701 20.08080849 2.73502182 17.13425115 2.625 14.1875 C2.5940625 13.16333984 2.563125 12.13917969 2.53125 11.08398438 C2.49257812 10.10107422 2.45390625 9.11816406 2.4140625 8.10546875 C2.3826416 7.19949951 2.3512207 6.29353027 2.31884766 5.36010742 C2.13972081 2.73474608 2.13972081 2.73474608 0 0 Z " fill="#33D8ED" transform="translate(152,79)"/>
<path d="M0 0 C0.33 0 0.66 0 1 0 C1.08776185 3.68734775 1.14064603 7.37442347 1.1875 11.0625 C1.21263672 12.10083984 1.23777344 13.13917969 1.26367188 14.20898438 C1.32160147 20.29159162 0.90687164 24.62114303 -2 30 C-2.33 30 -2.66 30 -3 30 C-2.14479453 19.98509384 -1.06672286 9.994054 0 0 Z " fill="#3FCBE7" transform="translate(201,70)"/>
<path d="M0 0 C1.77111844 0.47811177 3.54188483 0.9575278 5.3125 1.4375 C6.29863281 1.70433594 7.28476563 1.97117188 8.30078125 2.24609375 C10.21517526 2.78079425 12.11433615 3.37144538 14 4 C14 4.66 14 5.32 14 6 C14.66 6.33 15.32 6.66 16 7 C7.97229811 6.44636539 0.66145933 4.34312056 -7 2 C-3.98968256 1.06576355 -3.13349732 0.95550089 0 2 C0 1.34 0 0.68 0 0 Z " fill="#31C6FB" transform="translate(103,144)"/>
<path d="M0 0 C3.86107457 2.57404971 3.94319692 4.61020259 5 9 C6.66611905 9.042721 8.33382885 9.04063832 10 9 C11.27556818 7.94775333 11.27556818 7.94775333 11.125 5.5625 C11.17306676 3.01021378 11.17306676 3.01021378 10 1 C11.32 1.66 12.64 2.32 14 3 C14.125 6.375 14.125 6.375 14 10 C13.34 10.66 12.68 11.32 12 12 C9.8359375 11.9765625 9.8359375 11.9765625 7.375 11.625 C6.14910156 11.45871094 6.14910156 11.45871094 4.8984375 11.2890625 C4.27195313 11.19367188 3.64546875 11.09828125 3 11 C2.49632243 9.54293274 1.99717444 8.08429904 1.5 6.625 C1.2215625 5.81289062 0.943125 5.00078125 0.65625 4.1640625 C0 2 0 2 0 0 Z " fill="#073855" transform="translate(209,106)"/>
<path d="M0 0 C4.88160328 4.47480301 8.73195379 9.30823139 10 16 C10.06548492 17.58211573 10.08578381 19.16670081 10.0625 20.75 C10.05347656 21.54921875 10.04445312 22.3484375 10.03515625 23.171875 C10.02355469 23.77515625 10.01195312 24.3784375 10 25 C9.67 25 9.34 25 9 25 C8.85304687 24.24976562 8.70609375 23.49953125 8.5546875 22.7265625 C7.07876757 15.99161751 5.06879077 10.78076296 1.20703125 5.05859375 C0 3 0 3 0 0 Z " fill="#57E1E5" transform="translate(191,52)"/>
<path d="M0 0 C1.375 2.0625 1.375 2.0625 2 4 C1.34 3.67 0.68 3.34 0 3 C-2.57363824 2.90090181 -5.11434091 2.86107849 -7.6875 2.875 C-8.73067383 2.86919922 -8.73067383 2.86919922 -9.79492188 2.86328125 C-14.29451076 2.87168384 -18.56031125 3.26684039 -23 4 C-21 1 -21 1 -17.734375 0.234375 C-16.4080231 0.05894569 -15.07968901 -0.1019732 -13.75 -0.25 C-12.44546875 -0.42015625 -11.1409375 -0.5903125 -9.796875 -0.765625 C-6.25776654 -0.98408849 -3.42404308 -0.88942861 0 0 Z " fill="#021936" transform="translate(231,84)"/>
<path d="M0 0 C0.8353125 0.37125 0.8353125 0.37125 1.6875 0.75 C0.6975 1.245 0.6975 1.245 -0.3125 1.75 C-0.6425 2.74 -0.9725 3.73 -1.3125 4.75 C-1.9725 4.75 -2.6325 4.75 -3.3125 4.75 C-3.415625 5.513125 -3.51875 6.27625 -3.625 7.0625 C-4.35614039 9.92059424 -5.08201913 10.90742885 -7.3125 12.75 C-7.9725 12.42 -8.6325 12.09 -9.3125 11.75 C-8.9825 11.42 -8.6525 11.09 -8.3125 10.75 C-8.23 9.656875 -8.1475 8.56375 -8.0625 7.4375 C-7.3125 3.75 -7.3125 3.75 -5 1.25 C-2.3125 -0.25 -2.3125 -0.25 0 0 Z " fill="#07334E" transform="translate(90.3125,99.25)"/>
<path d="M0 0 C0.33 0 0.66 0 1 0 C1.25002209 1.74714233 1.47423194 3.49799141 1.6875 5.25 C1.81511719 6.22453125 1.94273437 7.1990625 2.07421875 8.203125 C2 11 2 11 0.80859375 13.3671875 C-1 15 -1 15 -3.2265625 15.2421875 C-4.41378906 15.06042969 -4.41378906 15.06042969 -5.625 14.875 C-6.42164063 14.76929687 -7.21828125 14.66359375 -8.0390625 14.5546875 C-9.00972656 14.28011719 -9.00972656 14.28011719 -10 14 C-10.33 13.34 -10.66 12.68 -11 12 C-10.36191406 11.93941406 -9.72382813 11.87882812 -9.06640625 11.81640625 C-8.24011719 11.73261719 -7.41382813 11.64882812 -6.5625 11.5625 C-5.73878906 11.48128906 -4.91507813 11.40007812 -4.06640625 11.31640625 C-2.01337975 11.21069185 -2.01337975 11.21069185 -1 10 C-0.76712992 8.31816052 -0.58735834 6.6287584 -0.4375 4.9375 C-0.35371094 4.01839844 -0.26992187 3.09929687 -0.18359375 2.15234375 C-0.12300781 1.44207031 -0.06242188 0.73179688 0 0 Z " fill="#053450" transform="translate(143,88)"/>
<path d="M0 0 C0 1.98 0 3.96 0 6 C-0.33 4.68 -0.66 3.36 -1 2 C-3.10457775 2.47735786 -5.20864922 2.95694829 -7.3125 3.4375 C-8.48425781 3.70433594 -9.65601563 3.97117187 -10.86328125 4.24609375 C-14.00236971 4.95313969 -14.00236971 4.95313969 -17 6 C-17.66 5.34 -18.32 4.68 -19 4 C-17.75108386 3.51801537 -16.50081192 3.03954323 -15.25 2.5625 C-14.55390625 2.29566406 -13.8578125 2.02882813 -13.140625 1.75390625 C-8.62407728 0.1632243 -4.81520531 -0.0926001 0 0 Z " fill="#63D5D8" transform="translate(180,17)"/>
<path d="M0 0 C7.42857143 -0.28571429 7.42857143 -0.28571429 11 2 C11 2.66 11 3.32 11 4 C11.66 4 12.32 4 13 4 C13 4.99 13 5.98 13 7 C8.56600657 6.49325789 6.33350545 4.89488631 3 2 C2.01 1.34 1.02 0.68 0 0 Z " fill="#083C59" transform="translate(206,100)"/>
<path d="M0 0 C3.375 -0.125 3.375 -0.125 7 0 C9 2 9 2 9.1953125 4.8203125 C9.16050781 6.45613281 9.16050781 6.45613281 9.125 8.125 C9.10695313 9.22070312 9.08890625 10.31640625 9.0703125 11.4453125 C9.04710938 12.28835937 9.02390625 13.13140625 9 14 C7.68 14.33 6.36 14.66 5 15 C5.33 14.34 5.66 13.68 6 13 C6.06996014 11.29297265 6.08440154 9.58331997 6.0625 7.875 C6.05347656 6.96492188 6.04445313 6.05484375 6.03515625 5.1171875 C6.02355469 4.41851562 6.01195313 3.71984375 6 3 C4.02 2.34 2.04 1.68 0 1 C0 0.67 0 0.34 0 0 Z " fill="#0D5C75" transform="translate(111,82)"/>
<path d="M0 0 C1.93835966 0.06010418 3.87584491 0.14891717 5.8125 0.25 C6.89144531 0.29640625 7.97039062 0.3428125 9.08203125 0.390625 C12 1 12 1 13.88671875 3.046875 C14.25410156 3.69140625 14.62148437 4.3359375 15 5 C4.24281984 4.39425587 4.24281984 4.39425587 0 1 C0 0.67 0 0.34 0 0 Z " fill="#083B56" transform="translate(210,92)"/>
<path d="M0 0 C0.99 0.33 1.98 0.66 3 1 C3 1.66 3 2.32 3 3 C4.45742463 3.08096803 5.91612807 3.13917774 7.375 3.1875 C8.59316406 3.23970703 8.59316406 3.23970703 9.8359375 3.29296875 C10.55007812 3.19628906 11.26421875 3.09960938 12 3 C12.66 2.01 13.32 1.02 14 0 C14.66 0.33 15.32 0.66 16 1 C14.9375 2.9375 14.9375 2.9375 13 5 C9.4375 5.6875 9.4375 5.6875 6 6 C5.01 6.495 5.01 6.495 4 7 C2 5.1875 2 5.1875 0 3 C0 2.01 0 1.02 0 0 Z " fill="#073652" transform="translate(177,92)"/>
<path d="M0 0 C-0.33 0.66 -0.66 1.32 -1 2 C-3.765625 2.6328125 -3.765625 2.6328125 -7.25 3.125 C-8.38953125 3.29257813 -9.5290625 3.46015625 -10.703125 3.6328125 C-13.51095622 3.94553304 -16.18013184 4.07420706 -19 4 C-19.33 3.34 -19.66 2.68 -20 2 C-18.95199219 1.90912109 -18.95199219 1.90912109 -17.8828125 1.81640625 C-16.97273437 1.73261719 -16.06265625 1.64882812 -15.125 1.5625 C-14.22007812 1.48128906 -13.31515625 1.40007812 -12.3828125 1.31640625 C-2.20170455 -0.03551136 -2.20170455 -0.03551136 0 0 Z " fill="#031836" transform="translate(229,77)"/>
<path d="M0 0 C0.66 0 1.32 0 2 0 C2 2.97 2 5.94 2 9 C2.78375 9.2475 3.5675 9.495 4.375 9.75 C7.32317108 11.15389099 7.9024777 12.00675737 9 15 C5.89656201 13.79310745 2.98806107 12.49403054 0 11 C0 7.37 0 3.74 0 0 Z " fill="#0C4F67" transform="translate(73,53)"/>
<path d="M0 0 C0.66 0.33 1.32 0.66 2 1 C2.44214068 4.09498477 2.68802791 6.00505499 2 9 C-0.3491029 12.04971254 -3.05691965 14.5299147 -6 17 C-6.66 16.67 -7.32 16.34 -8 16 C-4.20769231 11.16153846 -4.20769231 11.16153846 -2.3125 9.6875 C-0.08973644 6.82966114 -0.29077712 3.54748082 0 0 Z " fill="#021735" transform="translate(221,47)"/>
<path d="M0 0 C0 0.33 0 0.66 0 1 C-2.01822917 1.45572917 -4.03645833 1.91145833 -6.0546875 2.3671875 C-8.20719964 2.90474428 -8.20719964 2.90474428 -10 5 C-13.125 5.125 -13.125 5.125 -16 5 C-11.58448688 -1.09036292 -7.15036487 -0.56351387 0 0 Z " fill="#083A54" transform="translate(92,95)"/>
<path d="M0 0 C0.66 0.33 1.32 0.66 2 1 C1.34 1.66 0.68 2.32 0 3 C-0.28108663 5.37098906 -0.28108663 5.37098906 -0.1875 8 C-0.18105469 8.886875 -0.17460938 9.77375 -0.16796875 10.6875 C-0.14581927 13.02606345 -0.14581927 13.02606345 1 15 C0.01 14.67 -0.98 14.34 -2 14 C-2 12.68 -2 11.36 -2 10 C-2.66 10 -3.32 10 -4 10 C-4.33 9.01 -4.66 8.02 -5 7 C-3.58511552 4.23760649 -2.19636905 2.19636905 0 0 Z " fill="#031D3B" transform="translate(68,75)"/>
<path d="M0 0 C2.67956399 0.67355161 5.11113926 1.42239603 7.6875 2.375 C8.7403418 2.74625 8.7403418 2.74625 9.81445312 3.125 C11.54727145 3.73796975 13.27423912 4.36743328 15 5 C15 5.33 15 5.66 15 6 C8.56318772 5.48914188 3.04057576 4.27057103 -3 2 C-2.01 1.34 -1.02 0.68 0 0 Z " fill="#45AAF9" transform="translate(134,155)"/>
<path d="M0 0 C2.31 0 4.62 0 7 0 C7.66 2.97 8.32 5.94 9 9 C9.66 9 10.32 9 11 9 C11 9.99 11 10.98 11 12 C10.34 12 9.68 12 9 12 C6.04696841 8.92884715 5.47348414 6.1666604 5 2 C3.35 1.67 1.7 1.34 0 1 C0 0.67 0 0.34 0 0 Z " fill="#126077" transform="translate(76,54)"/>
<path d="M0 0 C0.66 0.33 1.32 0.66 2 1 C0.576875 2.3303125 0.576875 2.3303125 -0.875 3.6875 C-3.51555531 6.29713545 -4.7031148 8.508386 -6 12 C-6.99 12.33 -7.98 12.66 -9 13 C-7.71706845 7.98490396 -5.82781946 5.44503751 -2 2 C-1.34 1.34 -0.68 0.68 0 0 Z " fill="#67E1E4" transform="translate(159,22)"/>
<path d="M0 0 C0.33 0 0.66 0 1 0 C1.22786458 2.01822917 1.45572917 4.03645833 1.68359375 6.0546875 C1.91292961 8.07404316 1.91292961 8.07404316 3 10 C2.67 10.66 2.34 11.32 2 12 C1.34 12 0.68 12 0 12 C-0.33 10.68 -0.66 9.36 -1 8 C-2.98 8.99 -2.98 8.99 -5 10 C-3.35 6.7 -1.7 3.4 0 0 Z " fill="#438EDA" transform="translate(197,91)"/>
<path d="M0 0 C0.66 0 1.32 0 2 0 C2.33 2.64 2.66 5.28 3 8 C3.99 8 4.98 8 6 8 C6.66 9.65 7.32 11.3 8 13 C6.68 13 5.36 13 4 13 C4 11.68 4 10.36 4 9 C3.34 9 2.68 9 2 9 C1.34 6.03 0.68 3.06 0 0 Z " fill="#052B46" transform="translate(83,54)"/>
<path d="M0 0 C2.75 -0.25 2.75 -0.25 6 0 C8.375 2 8.375 2 10 4 C3.49618902 4.36814024 3.49618902 4.36814024 1.0625 2.5625 C0 1 0 1 0 0 Z " fill="#30E0FB" transform="translate(76,136)"/>
<path d="M0 0 C0.66 0.33 1.32 0.66 2 1 C-3.42465753 7.78082192 -3.42465753 7.78082192 -7 10 C-7.66 10 -8.32 10 -9 10 C-7.84906278 6.54718834 -6.6794007 5.61917837 -3.9375 3.3125 C-2.83728516 2.37857422 -2.83728516 2.37857422 -1.71484375 1.42578125 C-1.14894531 0.95527344 -0.58304688 0.48476562 0 0 Z " fill="#786DDF" transform="translate(186,121)"/>
<path d="M0 0 C3.63 0.66 7.26 1.32 11 2 C11 2.33 11 2.66 11 3 C8.36 3 5.72 3 3 3 C3 3.99 3 4.98 3 6 C2.01 5.67 1.02 5.34 0 5 C0 3.35 0 1.7 0 0 Z " fill="#4CD7DD" transform="translate(100,103)"/>
<path d="M0 0 C1.50303217 2.38716874 2.01411453 3.71065206 1.875 6.5625 C0.81677047 9.51042511 -0.47731974 10.25236006 -3 12 C-2.69230293 10.18667846 -2.37870936 8.37435655 -2.0625 6.5625 C-1.80146484 5.04849609 -1.80146484 5.04849609 -1.53515625 3.50390625 C-1 1 -1 1 0 0 Z " fill="#094862" transform="translate(209,49)"/>
<path d="M0 0 C0.556875 0.9590625 0.556875 0.9590625 1.125 1.9375 C3.58052793 4.63858072 5.44578805 4.68407005 9 5 C9 4.34 9 3.68 9 3 C10.98 3 12.96 3 15 3 C13.07876747 5.00476438 11.5698269 5.93016331 8.80078125 6.26953125 C6.47808577 6.310674 4.29922513 6.34177671 2 6 C1.34 5.34 0.68 4.68 0 4 C0 2.68 0 1.36 0 0 Z " fill="#11637A" transform="translate(67,82)"/>
<path d="M0 0 C1.98 0 3.96 0 6 0 C6.33 0.99 6.66 1.98 7 3 C4.36 3.33 1.72 3.66 -1 4 C-0.67 2.68 -0.34 1.36 0 0 Z " fill="#33D9DD" transform="translate(209,74)"/>
<path d="M0 0 C0 0.33 0 0.66 0 1 C-1.7634375 1.061875 -1.7634375 1.061875 -3.5625 1.125 C-8.67389492 1.71722936 -11.50123478 4.42469929 -15 8 C-14.1342843 5.33070993 -13.27808762 3.32258164 -11.4375 1.1875 C-7.71521629 -0.62592027 -4.06856367 -0.23472483 0 0 Z " fill="#32DBE1" transform="translate(187,74)"/>
<path d="M0 0 C3 2 3 2 3.9375 5.5 C4.61926941 9.067578 4.61926941 9.067578 7.125 10.4375 C7.74375 10.623125 8.3625 10.80875 9 11 C7.02 11 5.04 11 3 11 C2.49632243 9.54293274 1.99717444 8.08429904 1.5 6.625 C1.2215625 5.81289062 0.943125 5.00078125 0.65625 4.1640625 C0 2 0 2 0 0 Z " fill="#0B4964" transform="translate(209,106)"/>
<path d="M0 0 C0.33 0 0.66 0 1 0 C1.3125 2.6875 1.3125 2.6875 1 6 C-1.5 8.875 -1.5 8.875 -4 11 C-4.66 10.34 -5.32 9.68 -6 9 C-5.38125 8.62875 -4.7625 8.2575 -4.125 7.875 C-1.4489404 5.51377094 -0.9063156 3.39868348 0 0 Z " fill="#46D9E6" transform="translate(154,100)"/>
<path d="M0 0 C-0.33 0.99 -0.66 1.98 -1 3 C-3.06640625 3.73046875 -3.06640625 3.73046875 -5.5625 4.1875 C-6.38878906 4.34605469 -7.21507813 4.50460938 -8.06640625 4.66796875 C-9.02353516 4.83232422 -9.02353516 4.83232422 -10 5 C-5.16129032 0 -5.16129032 0 0 0 Z " fill="#6CE1E4" transform="translate(119,46)"/>
<path d="M0 0 C0 0.66 0 1.32 0 2 C-3.4019487 4.09350689 -6.05272412 4.17942163 -10 4 C-6.64877401 1.34213111 -4.39380802 0 0 0 Z " fill="#B195F7" transform="translate(167,200)"/>
<path d="M0 0 C0.66 0.33 1.32 0.66 2 1 C2 1.99 2 2.98 2 4 C-0.31 4.33 -2.62 4.66 -5 5 C-5 4.01 -5 3.02 -5 2 C-2.625 0.9375 -2.625 0.9375 0 0 Z " fill="#CBC0E7" transform="translate(157,199)"/>
<path d="M0 0 C0.66 1.32 1.32 2.64 2 4 C0.75 6.75 0.75 6.75 -1 9 C-1.66 9 -2.32 9 -3 9 C-2.01 6.03 -1.02 3.06 0 0 Z " fill="#59A0EF" transform="translate(196,101)"/>
<path d="M0 0 C2.64 0 5.28 0 8 0 C6.8125 1.5 6.8125 1.5 5 3 C2.3125 3.1875 2.3125 3.1875 0 3 C0 2.01 0 1.02 0 0 Z " fill="#021834" transform="translate(134,103)"/>
<path d="M0 0 C0.33 0.99 0.66 1.98 1 3 C-4.625 6 -4.625 6 -8 6 C-8 5.34 -8 4.68 -8 4 C-5.36 2.68 -2.72 1.36 0 0 Z " fill="#0C526B" transform="translate(220,68)"/>
<path d="M0 0 C1.65 0.33 3.3 0.66 5 1 C4.01 2.485 4.01 2.485 3 4 C-0.3 3.34 -3.6 2.68 -7 2 C-3 1 -3 1 0 2 C0 1.34 0 0.68 0 0 Z " fill="#30B6FA" transform="translate(103,144)"/>
<path d="M0 0 C4.455 0.99 4.455 0.99 9 2 C8.67 2.66 8.34 3.32 8 4 C5.69 4 3.38 4 1 4 C0.67 2.68 0.34 1.36 0 0 Z " fill="#084561" transform="translate(109,95)"/>
<path d="M0 0 C0.66 0 1.32 0 2 0 C0.125 4.75 0.125 4.75 -1 7 C-1.66 7 -2.32 7 -3 7 C-2.25 2.25 -2.25 2.25 0 0 Z " fill="#0A4862" transform="translate(86,100)"/>
<path d="M0 0 C0.53625 0.474375 1.0725 0.94875 1.625 1.4375 C4.42842836 3.28186076 6.69620258 3.62456847 10 4 C10 4.33 10 4.66 10 5 C2.25 5.125 2.25 5.125 0 4 C0 2.68 0 1.36 0 0 Z " fill="#032744" transform="translate(129,98)"/>
<path d="M0 0 C0.33 0.99 0.66 1.98 1 3 C0.01 3.33 -0.98 3.66 -2 4 C-2.33 4.99 -2.66 5.98 -3 7 C-3.66 7 -4.32 7 -5 7 C-3.75023244 3.34683329 -3.32901247 2.21934164 0 0 Z " fill="#0D526B" transform="translate(218,53)"/>
</svg>
